first trial
nRows=19
nColumns=38

# SIMM Motion File Header:
name Sujet_07_velo_80.mvnx
datacolumns 38
datarows 19
otherdata 1
range 7.7990 8.0990
endheader
time pelvis_tilt  pelvis_list  pelvis_rotation  pelvis_tx  pelvis_ty  pelvis_tz  hip_flexion_r  hip_adduction_r  hip_rotation_r  knee_angle_r  ankle_angle_r  subtalar_angle_r  mtp_angle_r  hip_flexion_l  hip_adduction_l  hip_rotation_l  knee_angle_l  ankle_angle_l  subtalar_angle_l  mtp_angle_l  lumbar_extension  lumbar_bending  lumbar_rotation  arm_flex_r  arm_add_r  arm_rot_r  elbow_flex_r  pro_sup_r  wrist_flex_r  wrist_dev_r  arm_flex_l  arm_add_l  arm_rot_l  elbow_flex_l  pro_sup_l  wrist_flex_l  wrist_dev_l
7.7990	-28.5812	-3.2859	-54.2879	0.0000	1.2500	-0.0000	92.9000	-2.8339	-2.9079	88.3192	8.8932	-5.2684	0.0000	53.9158	-12.2822	-4.3467	48.1072	-8.3956	1.5247	-0.0000	-16.6211	-0.4505	1.4059	101.4923	-0.7204	19.6893	12.1672	69.9764	-46.6245	-41.4761	89.4417	-1.2334	38.9079	6.2780	41.3297	-42.6750	-46.7797	
7.8160	-28.5765	-2.9257	-53.4996	0.0000	1.2500	-0.0000	91.6367	-3.4055	-3.7021	84.5721	8.6859	-5.0898	0.0000	55.4508	-12.3683	-4.4392	52.9535	-7.0208	1.7786	-0.0000	-16.6474	-0.4038	1.2243	101.5878	-0.7980	19.7843	12.1607	69.7300	-46.6690	-41.5818	89.5217	-1.1410	38.8770	6.3402	41.6289	-42.6857	-46.7202	
7.8330	-28.5255	-2.5056	-52.6093	0.0000	1.2500	-0.0000	89.8765	-4.0661	-4.7833	80.4137	8.1539	-4.6775	-0.0000	57.3088	-12.4549	-4.5605	58.2479	-5.7718	2.1172	0.0000	-16.6903	-0.3583	1.0070	101.6928	-0.9479	19.9580	12.1811	69.4524	-46.6955	-41.7215	89.6141	-1.0486	38.7194	6.4252	42.1263	-42.7125	-46.6653	
7.8490	-28.4472	-2.0546	-51.6873	0.0000	1.2500	-0.0000	87.7385	-4.7871	-5.9461	75.9866	7.2831	-4.3051	0.0000	59.3300	-12.4589	-4.5597	63.4999	-4.7148	2.5315	0.0000	-16.7436	-0.3220	0.7744	101.7212	-1.1088	20.0472	12.2310	69.2357	-46.7144	-41.8440	89.7134	-0.9779	38.6239	6.4938	42.5771	-42.7709	-46.6123	
7.8660	-28.3369	-1.5655	-50.7548	0.0000	1.2500	-0.0000	85.1742	-5.5671	-7.2345	71.2458	6.1561	-4.1355	0.0000	61.4807	-12.3316	-4.3906	68.6233	-3.9414	3.0815	-0.0000	-16.8082	-0.3059	0.5294	101.5997	-1.2585	19.9449	12.3321	69.1606	-46.7251	-41.9252	89.8211	-0.9467	38.6489	6.5184	42.9030	-42.8828	-46.5556	
7.8830	-28.1976	-1.0475	-49.7924	0.0000	1.2500	-0.0000	82.2244	-6.3731	-8.6466	66.2441	4.7016	-4.0063	0.0000	63.7926	-12.1056	-4.1209	73.7000	-3.3581	3.7046	0.0000	-16.8839	-0.2986	0.2691	101.4005	-1.4176	19.7581	12.4634	69.1462	-46.7286	-41.9895	89.9356	-0.9362	38.7365	6.5270	43.1825	-43.0264	-46.5005	
7.8990	-28.0620	-0.5531	-48.8085	0.0000	1.2500	-0.0000	79.1411	-7.1638	-9.8891	61.2869	2.6848	-3.7115	-0.0000	66.2073	-11.8146	-3.7660	78.4955	-2.7536	4.2104	-0.0000	-16.9620	-0.2738	0.0062	101.2551	-1.5894	19.6444	12.5625	69.0421	-46.7367	-42.0581	90.0461	-0.9121	38.9016	6.5650	43.4066	-43.1512	-46.4603	
7.9160	-27.9368	-0.0999	-47.7797	0.0000	1.2500	-0.0000	75.9334	-7.9785	-10.8695	56.3834	-0.1345	-3.1574	-0.0000	68.7448	-11.4488	-3.3091	82.9882	-2.1172	4.5887	-0.0000	-17.0442	-0.2167	-0.2599	101.2262	-1.7795	19.7147	12.6004	68.7427	-46.7589	-42.1334	90.1463	-0.8611	39.1619	6.6596	43.5803	-43.2290	-46.4385	
7.9330	-27.8161	0.3304	-46.7285	0.0000	1.2500	-0.0000	72.5826	-8.7915	-11.6990	51.5358	-3.5071	-2.5025	0.0000	71.3820	-10.9976	-2.7848	87.2026	-1.4603	4.8546	-0.0000	-17.1283	-0.1418	-0.5285	101.2520	-1.9840	19.8580	12.6038	68.3530	-46.7857	-42.2130	90.2419	-0.7966	39.4994	6.7838	43.6986	-43.2880	-46.4319	
7.9490	-27.7157	0.7424	-45.7313	0.0000	1.2500	-0.0000	69.3058	-9.5033	-12.3537	47.0361	-6.9535	-1.8823	0.0000	73.9983	-10.5042	-2.2698	90.9738	-0.6105	4.8625	0.0000	-17.1994	-0.0673	-0.7860	101.2776	-2.1928	19.8989	12.5960	68.0392	-46.8001	-42.3112	90.3403	-0.7258	39.8748	6.9013	43.7364	-43.3629	-46.4433	
7.9660	-27.6333	1.1445	-44.8057	0.0000	1.2500	-0.0000	66.0918	-10.1196	-12.8038	42.8336	-10.5200	-1.2375	0.0000	76.5973	-9.9818	-1.7549	94.3051	0.4761	4.5455	0.0000	-17.2597	0.0019	-1.0298	101.3193	-2.4190	19.7233	12.5652	67.8973	-46.7952	-42.4513	90.4692	-0.6564	40.3317	6.9966	43.6274	-43.4754	-46.4890	
7.9830	-27.5729	1.5300	-43.9326	0.0000	1.2500	-0.0000	62.9546	-10.6735	-13.0532	38.9700	-14.1837	-0.5640	0.0000	79.1769	-9.4233	-1.2459	97.1968	1.7459	3.9846	0.0000	-17.3067	0.0703	-1.2627	101.3585	-2.6488	19.4454	12.5259	67.8325	-46.7781	-42.6103	90.6012	-0.5811	40.8265	7.0870	43.4381	-43.6036	-46.5526	
7.9990	-27.5619	1.8826	-43.1332	0.0000	1.2500	-0.0000	60.1593	-11.1225	-13.0938	35.8747	-17.3740	-0.0048	-0.0000	81.6112	-8.8618	-0.8231	99.4793	3.2239	3.2574	0.0000	-17.3184	0.1330	-1.4787	101.2887	-2.8312	19.2318	12.5425	67.7245	-46.7538	-42.7331	90.6608	-0.4837	41.1890	7.1833	43.3434	-43.7172	-46.5877	
8.0160	-27.6168	2.2004	-42.4060	0.0000	1.2500	-0.0000	57.7253	-11.4602	-12.8450	33.6054	-19.9515	0.4351	-0.0000	83.9216	-8.3168	-0.4787	101.1421	5.0145	2.3381	0.0000	-17.2790	0.1889	-1.6769	101.0129	-2.9332	19.1501	12.6512	67.5085	-46.7161	-42.7880	90.5964	-0.3504	41.3199	7.2883	43.4333	-43.8041	-46.5628	
8.0330	-27.7233	2.4881	-41.7501	0.0000	1.2500	-0.0000	55.6395	-11.7352	-12.3486	32.1011	-22.0577	0.8616	0.0000	86.0904	-7.7840	-0.2006	102.1955	7.0117	1.2584	-0.0000	-17.2044	0.2379	-1.8586	100.6303	-2.9866	19.1336	12.8148	67.2484	-46.6713	-42.8068	90.4598	-0.1958	41.3187	7.3970	43.6175	-43.8765	-46.5095	
8.0490	-27.8637	2.7378	-41.1879	0.0000	1.2500	-0.0000	54.1225	-11.9777	-11.7672	31.6174	-23.5326	1.2521	0.0000	87.9354	-7.2724	-0.0482	102.4997	8.9297	0.1756	0.0000	-17.1206	0.2775	-2.0212	100.3301	-3.0368	19.1476	12.9886	67.0164	-46.6435	-42.8294	90.3298	-0.0455	41.3133	7.5070	43.7995	-43.9408	-46.4763	
8.0660	-28.0608	2.9605	-40.6995	0.0000	1.2500	-0.0000	53.3225	-12.2000	-11.0400	32.3833	-24.2253	1.5571	0.0000	89.4375	-6.7654	-0.0267	101.9544	10.8019	-0.9721	-0.0000	-17.0234	0.3081	-2.1761	100.1867	-3.0930	19.1928	13.1872	66.8341	-46.6527	-42.8783	90.2315	0.0954	41.3436	7.6127	43.9579	-43.9941	-46.4886	
8.0830	-28.2935	3.1458	-40.3044	0.0000	1.2500	-0.0000	53.0980	-12.3898	-10.2019	34.1769	-24.2743	1.7798	0.0000	90.6200	-6.2918	-0.1045	100.6600	12.5936	-2.1223	-0.0000	-16.9170	0.3295	-2.3118	100.1258	-3.1474	19.2681	13.3971	66.6802	-46.6789	-42.9311	90.1401	0.2322	41.3699	7.7199	44.1139	-44.0393	-46.5210	
8.0990	-28.4784	3.2510	-40.0865	0.0000	1.2500	-0.0000	53.2370	-12.5238	-9.5615	36.5809	-23.9490	1.9149	-0.0000	91.3658	-5.9296	-0.2767	98.7780	13.9293	-2.9505	-0.0000	-16.8399	0.3390	-2.3912	100.1124	-3.2203	19.3362	13.5311	66.5620	-46.6853	-42.9605	90.0604	0.3550	41.4000	7.8440	44.2339	-44.0912	-46.5463	
